<svg xmlns="http://www.w3.org/2000/svg" viewBox="1.0099999904632568 0.9900000095367432 98.30999755859375 83.45000457763672"><g fill="#ffffff"><path d="M47.84.99H13.17C6.46.99 1.01 6.43 1.01 13.14V47.8c0 6.71 5.44 12.16 12.16 12.16h34.66c6.71 0 12.16-5.44 12.16-12.16V13.14C59.99 6.43 54.55.99 47.84.99zM91.95 24.25H70.97c-4.06 0-7.36 3.3-7.36 7.36V52.6c0 4.07 3.3 7.36 7.36 7.36h20.99c4.07 0 7.36-3.3 7.36-7.36V31.61c-.01-4.06-3.3-7.36-7.37-7.36zM79.53 64.37H67.74c-2.28 0-4.14 1.85-4.14 4.14V80.3c0 2.28 1.85 4.14 4.14 4.14h11.79c2.28 0 4.14-1.85 4.14-4.14V68.51c0-2.28-1.86-4.14-4.14-4.14zM57.33 64.37h-7.6c-1.47 0-2.67 1.2-2.67 2.67v7.6a2.67 2.67 0 0 0 2.67 2.67h7.6c1.47 0 2.67-1.2 2.67-2.67v-7.6c-.01-1.47-1.2-2.67-2.67-2.67z"/></g></svg>